<?xml version="1.0" encoding="utf-8"?>
<svg viewBox="-25 57.5 550 385" xmlns="http://www.w3.org/2000/svg">
  <defs>
    <linearGradient gradientUnits="userSpaceOnUse" x1="364.245" y1="52.941" x2="364.245" y2="193.277" id="gradient-0" gradientTransform="matrix(0.999999, -0.000001, 0, 3.101799, -6.722686, -160.010794)">
      <stop offset="0" style="stop-color: rgba(58, 63, 163, 1)"/>
      <stop offset="1" style="stop-color: rgba(31, 34, 88, 1)"/>
    </linearGradient>
  </defs>
  <g>
    <rect x="-25" y="57.5" width="550" height="385" style="stroke: rgb(0, 0, 0); paint-order: fill; stroke-width: 0px; fill: rgb(5, 5, 20);"/>
    <path d="M 224.601 168.546 Q 209.301 168.546 196.926 161.421 Q 184.551 154.296 177.576 141.921 Q 170.601 129.546 170.601 114.546 Q 170.601 100.146 176.751 88.521 Q 182.901 76.896 194.226 70.221 Q 205.551 63.546 220.101 63.546 Q 233.301 63.546 242.601 66.996 Q 251.901 70.446 256.401 75.696 Q 258.951 78.996 259.626 84.096 Q 260.301 89.196 260.301 96.546 L 255.801 96.546 Q 252.951 82.896 245.376 76.596 Q 237.801 70.296 224.601 70.296 Q 207.801 70.296 199.701 82.896 Q 191.601 95.496 191.601 114.546 Q 191.601 140.196 200.526 151.371 Q 209.451 162.546 224.601 162.546 Q 236.301 162.546 244.851 158.646 L 244.851 131.946 Q 244.851 123.996 250.851 118.821 Q 256.851 113.646 273.951 113.646 L 273.951 117.396 Q 264.351 117.396 264.351 131.646 L 264.351 158.496 Q 255.801 163.746 246.051 166.146 Q 236.301 168.546 224.601 168.546 Z" transform="matrix(1, 0, 0, 1, -27.265238, 135.714493)" style="fill: url(#gradient-0); paint-order: fill; stroke-width: 0px; white-space: pre;"/>
    <path d="M 388.495 172.296 Q 372.295 172.296 365.17 164.721 Q 358.045 157.146 358.045 140.046 L 358.045 86.946 L 325.195 165.546 L 320.245 165.546 L 280.045 83.946 L 280.045 165.546 L 272.545 165.546 L 272.545 66.546 L 290.845 66.546 L 327.145 140.196 L 357.895 66.546 L 377.545 66.546 L 377.545 140.046 Q 377.545 154.146 379.945 160.746 Q 382.345 167.346 388.495 168.546 L 388.495 172.296 Z" transform="matrix(1, 0, 0, 1, -27.265238, 135.714493)" style="fill: url(#gradient-0); paint-order: fill; stroke-width: 0px; white-space: pre;"/>
  </g>
</svg>